<?xml version="1.0" encoding="UTF-8"?>
<svg width="192" height="192" version="1.1" viewBox="0 0 192 192" xmlns="http://www.w3.org/2000/svg">
    <rect width="192" height="192" rx="48" fill="#000000"/>
    <path d="M96 56c-22.1 0-40 17.9-40 40s17.9 40 40 40 40-17.9 40-40-17.9-40-40-40zm0 60c-11 0-20-9-20-20s9-20 20-20 20 9 20 20-9 20-20 20z" fill="#ffffff"/>
    <path d="M144 80h-16v-16c0-4.4-3.6-8-8-8h-48c-4.4 0-8 3.6-8 8v16h-16c-4.4 0-8 3.6-8 8v48c0 4.4 3.6 8 8 8h16v16c0 4.4 3.6 8 8 8h48c4.4 0 8-3.6 8-8v-16h16c4.4 0 8-3.6 8-8v-48c0-4.4-3.6-8-8-8zm-24 56h-48v-48h48v48z" fill="#ffffff"/>
</svg>
